<?xml version="1.0" encoding="UTF-8" standalone="no"?>
<!DOCTYPE svg PUBLIC "-//W3C//DTD SVG 1.1//EN"
 "http://www.w3.org/Graphics/SVG/1.1/DTD/svg11.dtd">
<!-- Generated by graphviz version 2.43.0 (0)
 -->
<!-- Title: G Pages: 1 -->
<svg width="1615pt" height="190pt"
 viewBox="0.00 0.00 1615.00 190.00" xmlns="http://www.w3.org/2000/svg" xmlns:xlink="http://www.w3.org/1999/xlink">
<g id="graph0" class="graph" transform="scale(1 1) rotate(0) translate(4 186)">
<title>G</title>
<polygon fill="white" stroke="transparent" points="-4,4 -4,-186 1611,-186 1611,4 -4,4"/>
<!-- azurerm_linux_virtual_machine.vmtfBAL -->
<g id="node1" class="node">
<title>azurerm_linux_virtual_machine.vmtfBAL</title>
<polygon fill="none" stroke="black" points="1479.5,-136 1184.5,-136 1184.5,-100 1479.5,-100 1479.5,-136"/>
<text text-anchor="middle" x="1332" y="-114.3" font-family="sans-serif" font-size="14.00">azurerm_linux_virtual_machine.vmtfBAL</text>
</g>
<!-- azurerm_network_interface.nic -->
<g id="node2" class="node">
<title>azurerm_network_interface.nic</title>
<polygon fill="none" stroke="black" points="998,-136 768,-136 768,-100 998,-100 998,-136"/>
<text text-anchor="middle" x="883" y="-114.3" font-family="sans-serif" font-size="14.00">azurerm_network_interface.nic</text>
</g>
<!-- azurerm_linux_virtual_machine.vmtfBAL&#45;&gt;azurerm_network_interface.nic -->
<g id="edge1" class="edge">
<title>azurerm_linux_virtual_machine.vmtfBAL&#45;&gt;azurerm_network_interface.nic</title>
<path fill="none" stroke="black" d="M1184.33,-118C1127.42,-118 1062.94,-118 1008.36,-118"/>
<polygon fill="black" stroke="black" points="1008.28,-114.5 998.28,-118 1008.28,-121.5 1008.28,-114.5"/>
</g>
<!-- azurerm_public_ip.pip -->
<g id="node5" class="node">
<title>azurerm_public_ip.pip</title>
<polygon fill="none" stroke="black" points="702.5,-182 534.5,-182 534.5,-146 702.5,-146 702.5,-182"/>
<text text-anchor="middle" x="618.5" y="-160.3" font-family="sans-serif" font-size="14.00">azurerm_public_ip.pip</text>
</g>
<!-- azurerm_network_interface.nic&#45;&gt;azurerm_public_ip.pip -->
<g id="edge2" class="edge">
<title>azurerm_network_interface.nic&#45;&gt;azurerm_public_ip.pip</title>
<path fill="none" stroke="black" d="M779.01,-136.05C757.18,-139.87 734.27,-143.89 712.82,-147.65"/>
<polygon fill="black" stroke="black" points="712.01,-144.24 702.76,-149.41 713.21,-151.13 712.01,-144.24"/>
</g>
<!-- azurerm_subnet.subnet -->
<g id="node8" class="node">
<title>azurerm_subnet.subnet</title>
<polygon fill="none" stroke="black" points="709,-128 528,-128 528,-92 709,-92 709,-128"/>
<text text-anchor="middle" x="618.5" y="-106.3" font-family="sans-serif" font-size="14.00">azurerm_subnet.subnet</text>
</g>
<!-- azurerm_network_interface.nic&#45;&gt;azurerm_subnet.subnet -->
<g id="edge3" class="edge">
<title>azurerm_network_interface.nic&#45;&gt;azurerm_subnet.subnet</title>
<path fill="none" stroke="black" d="M767.63,-114.51C751.53,-114.02 735.1,-113.52 719.3,-113.04"/>
<polygon fill="black" stroke="black" points="719.13,-109.53 709.03,-112.73 718.92,-116.53 719.13,-109.53"/>
</g>
<!-- azurerm_network_interface_security_group_association.nsg&#45;nic&#45;example&#45;BAL -->
<g id="node3" class="node">
<title>azurerm_network_interface_security_group_association.nsg&#45;nic&#45;example&#45;BAL</title>
<polygon fill="none" stroke="black" points="1607,-82 1057,-82 1057,-46 1607,-46 1607,-82"/>
<text text-anchor="middle" x="1332" y="-60.3" font-family="sans-serif" font-size="14.00">azurerm_network_interface_security_group_association.nsg&#45;nic&#45;example&#45;BAL</text>
</g>
<!-- azurerm_network_interface_security_group_association.nsg&#45;nic&#45;example&#45;BAL&#45;&gt;azurerm_network_interface.nic -->
<g id="edge4" class="edge">
<title>azurerm_network_interface_security_group_association.nsg&#45;nic&#45;example&#45;BAL&#45;&gt;azurerm_network_interface.nic</title>
<path fill="none" stroke="black" d="M1134.41,-82.02C1108.35,-84.8 1082.01,-87.82 1057,-91 1039.57,-93.22 1021.19,-95.81 1003.19,-98.49"/>
<polygon fill="black" stroke="black" points="1002.59,-95.04 993.23,-99.99 1003.64,-101.97 1002.59,-95.04"/>
</g>
<!-- azurerm_network_security_group.nsg -->
<g id="node4" class="node">
<title>azurerm_network_security_group.nsg</title>
<polygon fill="none" stroke="black" points="1021,-82 745,-82 745,-46 1021,-46 1021,-82"/>
<text text-anchor="middle" x="883" y="-60.3" font-family="sans-serif" font-size="14.00">azurerm_network_security_group.nsg</text>
</g>
<!-- azurerm_network_interface_security_group_association.nsg&#45;nic&#45;example&#45;BAL&#45;&gt;azurerm_network_security_group.nsg -->
<g id="edge5" class="edge">
<title>azurerm_network_interface_security_group_association.nsg&#45;nic&#45;example&#45;BAL&#45;&gt;azurerm_network_security_group.nsg</title>
<path fill="none" stroke="black" d="M1056.82,-64C1048.15,-64 1039.58,-64 1031.18,-64"/>
<polygon fill="black" stroke="black" points="1031.02,-60.5 1021.02,-64 1031.02,-67.5 1031.02,-60.5"/>
</g>
<!-- azurerm_resource_group.rg -->
<g id="node6" class="node">
<title>azurerm_resource_group.rg</title>
<polygon fill="none" stroke="black" points="206,-105 0,-105 0,-69 206,-69 206,-105"/>
<text text-anchor="middle" x="103" y="-83.3" font-family="sans-serif" font-size="14.00">azurerm_resource_group.rg</text>
</g>
<!-- azurerm_network_security_group.nsg&#45;&gt;azurerm_resource_group.rg -->
<g id="edge6" class="edge">
<title>azurerm_network_security_group.nsg&#45;&gt;azurerm_resource_group.rg</title>
<path fill="none" stroke="black" d="M744.7,-68.06C594.36,-72.5 356.13,-79.55 216.44,-83.68"/>
<polygon fill="black" stroke="black" points="216.04,-80.19 206.14,-83.98 216.24,-87.18 216.04,-80.19"/>
</g>
<!-- azurerm_public_ip.pip&#45;&gt;azurerm_resource_group.rg -->
<g id="edge7" class="edge">
<title>azurerm_public_ip.pip&#45;&gt;azurerm_resource_group.rg</title>
<path fill="none" stroke="black" d="M534.17,-164.55C457.47,-163.52 340.93,-158.05 242,-137 212.05,-130.63 179.82,-119.22 154.04,-108.91"/>
<polygon fill="black" stroke="black" points="155.08,-105.56 144.49,-105.03 152.44,-112.04 155.08,-105.56"/>
</g>
<!-- azurerm_ssh_public_key.sshk&#45;BAL -->
<g id="node7" class="node">
<title>azurerm_ssh_public_key.sshk&#45;BAL</title>
<polygon fill="none" stroke="black" points="492,-36 242,-36 242,0 492,0 492,-36"/>
<text text-anchor="middle" x="367" y="-14.3" font-family="sans-serif" font-size="14.00">azurerm_ssh_public_key.sshk&#45;BAL</text>
</g>
<!-- azurerm_ssh_public_key.sshk&#45;BAL&#45;&gt;azurerm_resource_group.rg -->
<g id="edge8" class="edge">
<title>azurerm_ssh_public_key.sshk&#45;BAL&#45;&gt;azurerm_resource_group.rg</title>
<path fill="none" stroke="black" d="M295.48,-36.08C277.99,-40.59 259.31,-45.45 242,-50 222,-55.26 200.4,-61.02 180.35,-66.39"/>
<polygon fill="black" stroke="black" points="179.4,-63.02 170.65,-69 181.21,-69.78 179.4,-63.02"/>
</g>
<!-- azurerm_virtual_network.vnet -->
<g id="node9" class="node">
<title>azurerm_virtual_network.vnet</title>
<polygon fill="none" stroke="black" points="478.5,-128 255.5,-128 255.5,-92 478.5,-92 478.5,-128"/>
<text text-anchor="middle" x="367" y="-106.3" font-family="sans-serif" font-size="14.00">azurerm_virtual_network.vnet</text>
</g>
<!-- azurerm_subnet.subnet&#45;&gt;azurerm_virtual_network.vnet -->
<g id="edge9" class="edge">
<title>azurerm_subnet.subnet&#45;&gt;azurerm_virtual_network.vnet</title>
<path fill="none" stroke="black" d="M527.78,-110C515.09,-110 501.87,-110 488.71,-110"/>
<polygon fill="black" stroke="black" points="488.67,-106.5 478.67,-110 488.67,-113.5 488.67,-106.5"/>
</g>
<!-- azurerm_virtual_network.vnet&#45;&gt;azurerm_resource_group.rg -->
<g id="edge10" class="edge">
<title>azurerm_virtual_network.vnet&#45;&gt;azurerm_resource_group.rg</title>
<path fill="none" stroke="black" d="M255.27,-100.28C242.37,-99.15 229.21,-97.99 216.3,-96.86"/>
<polygon fill="black" stroke="black" points="216.27,-93.34 206,-95.95 215.66,-100.32 216.27,-93.34"/>
</g>
</g>
</svg>
